<svg aria-hidden="true" style="position: absolute; width: 0; height: 0; overflow: hidden;" version="1.1" xmlns="http://www.w3.org/2000/svg" xmlns:xlink="http://www.w3.org/1999/xlink">
<defs>
<symbol id="icon-twitter" viewBox="0 0 32 32">
<path d="M30.259 6.682c-1.12 0.491-2.313 0.817-3.558 0.975 1.28-0.764 2.257-1.965 2.716-3.413-1.193 0.712-2.511 1.214-3.915 1.495-1.133-1.207-2.748-1.954-4.51-1.954-3.418 0-6.17 2.775-6.17 6.176 0 0.489 0.041 0.96 0.143 1.408-5.133-0.25-9.675-2.711-12.727-6.458-0.533 0.924-0.845 1.982-0.845 3.121 0 2.138 1.101 4.034 2.743 5.131-0.992-0.019-1.965-0.307-2.79-0.76v0.068c0 3 2.14 5.493 4.947 6.067-0.503 0.137-1.050 0.203-1.619 0.203-0.395 0-0.794-0.023-1.169-0.105 0.8 2.445 3.070 4.243 5.769 4.301-2.101 1.643-4.768 2.633-7.656 2.633-0.506 0-0.992-0.023-1.478-0.085 2.735 1.764 5.976 2.771 9.472 2.771 11.362 0 17.574-9.412 17.574-17.57 0-0.273-0.009-0.536-0.023-0.798 1.225-0.87 2.255-1.956 3.095-3.206z"></path>
</symbol>
<symbol id="icon-linkedin" viewBox="0 0 32 32">
<path d="M30.251 31.080v-0.001h0.008v-11.046c0-5.404-1.163-9.566-7.48-9.566-3.037 0-5.075 1.667-5.907 3.246h-0.088v-2.742h-5.99v20.107h6.237v-9.957c0-2.621 0.497-5.156 3.743-5.156 3.199 0 3.247 2.992 3.247 5.325v9.789h6.231zM0.638 10.972h6.244v20.107h-6.244v-20.107zM3.758 0.962c-1.997 0-3.617 1.62-3.617 3.617s1.62 3.651 3.617 3.651c1.997 0 3.617-1.654 3.617-3.651-0.001-1.997-1.621-3.617-3.617-3.617z"></path>
</symbol>
<symbol id="icon-instagram" viewBox="0 0 32 32">
<path d="M30.229 9.817c-0.071-1.6-0.329-2.7-0.7-3.654-0.382-1.012-0.971-1.918-1.742-2.671-0.753-0.765-1.665-1.359-2.665-1.736-0.959-0.371-2.053-0.629-3.654-0.7-1.612-0.077-2.124-0.094-6.213-0.094s-4.601 0.018-6.207 0.088c-1.6 0.071-2.7 0.33-3.654 0.7-1.012 0.382-1.918 0.971-2.671 1.742-0.765 0.753-1.359 1.665-1.736 2.665-0.371 0.959-0.629 2.053-0.7 3.654-0.077 1.612-0.094 2.124-0.094 6.213s0.018 4.601 0.088 6.207c0.071 1.6 0.33 2.7 0.7 3.654 0.382 1.012 0.977 1.918 1.741 2.671 0.753 0.765 1.665 1.359 2.665 1.736 0.959 0.371 2.053 0.629 3.654 0.7 1.606 0.071 2.118 0.088 6.207 0.088s4.601-0.017 6.207-0.088c1.6-0.071 2.7-0.329 3.653-0.7 2.024-0.783 3.624-2.383 4.407-4.407 0.37-0.959 0.629-2.053 0.7-3.654 0.071-1.606 0.088-2.118 0.088-6.207s-0.006-4.601-0.077-6.207zM27.517 22.113c-0.065 1.471-0.312 2.265-0.518 2.795-0.506 1.312-1.547 2.354-2.859 2.859-0.529 0.206-1.329 0.453-2.795 0.518-1.589 0.071-2.065 0.088-6.083 0.088s-4.501-0.017-6.084-0.088c-1.471-0.065-2.265-0.312-2.795-0.518-0.653-0.241-1.247-0.624-1.73-1.124-0.5-0.488-0.883-1.077-1.124-1.73-0.206-0.529-0.453-1.33-0.518-2.795-0.071-1.589-0.088-2.065-0.088-6.084s0.017-4.501 0.088-6.083c0.065-1.471 0.312-2.265 0.518-2.795 0.241-0.653 0.624-1.247 1.13-1.73 0.488-0.5 1.077-0.883 1.73-1.124 0.529-0.206 1.33-0.453 2.795-0.518 1.589-0.071 2.065-0.088 6.083-0.088 4.025 0 4.501 0.018 6.084 0.088 1.471 0.065 2.265 0.312 2.795 0.518 0.653 0.241 1.247 0.623 1.73 1.124 0.5 0.488 0.882 1.077 1.124 1.73 0.206 0.529 0.453 1.33 0.518 2.795 0.071 1.589 0.088 2.065 0.088 6.083s-0.018 4.489-0.088 6.078z"></path>
<path d="M15.256 8.287c-4.271 0-7.737 3.465-7.737 7.737s3.466 7.737 7.737 7.737c4.271 0 7.737-3.465 7.737-7.737s-3.465-7.737-7.737-7.737zM15.256 21.042c-2.771 0-5.019-2.247-5.019-5.019s2.248-5.019 5.019-5.019c2.771 0 5.019 2.247 5.019 5.019s-2.248 5.019-5.019 5.019zM25.105 7.981c0 0.997-0.809 1.806-1.806 1.806s-1.806-0.809-1.806-1.806c0-0.998 0.809-1.806 1.806-1.806s1.806 0.809 1.806 1.806z"></path>
</symbol>
<symbol id="icon-facebook" viewBox="0 0 32 32">
<path d="M20.216 5.963h2.75v-4.789c-0.474-0.065-2.106-0.212-4.006-0.212-3.964 0-6.68 2.494-6.68 7.076v4.218h-4.375v5.353h4.375v13.47h5.363v-13.469h4.198l0.666-5.353h-4.865v-3.688c0.001-1.547 0.418-2.606 2.574-2.606z"></path>
</symbol>
<symbol id="icon-diagram" viewBox="0 0 32 32">
<path d="M14.925 14.965h1.066v4.798h-1.066v-4.797zM19.19 17.097h1.066v2.665h-1.066v-2.665zM10.661 18.696h1.066v1.066h-1.066v-1.066zM7.463 18.163h1.066v1.599h-1.066v-1.599z"></path>
<path d="M1.599 28.291h25.587c0.883 0 1.599-0.716 1.599-1.599v-2.132c0-0.883-0.716-1.599-1.599-1.599h-0.533v-13.293l3.028-2.868c0.703 0.346 1.553 0.136 2.013-0.499s0.396-1.508-0.152-2.068-1.42-0.644-2.065-0.198c-0.644 0.446-0.873 1.292-0.542 2.002l-2.281 2.163v-1.23c0-0.883-0.716-1.599-1.599-1.599h-21.322c-0.883 0-1.599 0.716-1.599 1.599v15.992h-0.533c-0.883 0-1.599 0.716-1.599 1.599v2.132c0 0.883 0.716 1.599 1.599 1.599zM30.384 4.837c0.294 0 0.533 0.239 0.533 0.533s-0.239 0.533-0.533 0.533c-0.294 0-0.533-0.239-0.533-0.533s0.239-0.533 0.533-0.533zM3.198 6.969c0-0.294 0.239-0.533 0.533-0.533h21.322c0.294 0 0.533 0.239 0.533 0.533v2.239l-1.066 1.013v-2.186c0-0.294-0.239-0.533-0.533-0.533h-19.19c-0.294 0-0.533 0.239-0.533 0.533v13.326c0 0.294 0.239 0.533 0.533 0.533h19.19c0.294 0 0.533-0.239 0.533-0.533v-9.674l1.066-1.010v12.284h-22.388v-15.992zM7.996 13.899c-0.721-0.002-1.354 0.478-1.546 1.174s0.105 1.433 0.725 1.801c0.62 0.368 1.41 0.276 1.928-0.226l1.853 0.93c0.215 0.108 0.476 0.057 0.636-0.123l3.939-4.431 3.872 2.901c0.208 0.156 0.498 0.139 0.686-0.039l3.365-3.188v8.131h-18.124v-12.26h18.124v2.66l-3.771 3.572-3.904-2.927c-0.222-0.166-0.534-0.135-0.718 0.072l-3.993 4.493-1.493-0.746c0.011-0.064 0.018-0.129 0.020-0.193 0-0.883-0.716-1.599-1.599-1.599zM8.529 15.498c0 0.294-0.239 0.533-0.533 0.533s-0.533-0.239-0.533-0.533c0-0.294 0.239-0.533 0.533-0.533s0.533 0.239 0.533 0.533zM11.727 24.027h5.331v0.533c0 0.294-0.239 0.533-0.533 0.533h-4.264c-0.294 0-0.533-0.239-0.533-0.533v-0.533zM1.066 24.56c0-0.294 0.239-0.533 0.533-0.533h9.062v0.533c0 0.883 0.716 1.599 1.599 1.599h4.264c0.883 0 1.599-0.716 1.599-1.599v-0.533h9.062c0.294 0 0.533 0.239 0.533 0.533v2.132c0 0.294-0.239 0.533-0.533 0.533h-25.587c-0.294 0-0.533-0.239-0.533-0.533v-2.132z"></path>
</symbol>
<symbol id="icon-clock" viewBox="0 0 32 32">
<path d="M31.297 15.301c-0.002-8.452-6.855-15.303-15.308-15.301s-15.303 6.855-15.301 15.308c0.001 6.658 4.307 12.551 10.649 14.576 0.061 0.019 0.124 0.029 0.187 0.029 0.126-0 0.245-0.035 0.346-0.095l-0.003 0.002c0.134-0.080 0.234-0.204 0.282-0.352l0.001-0.005 3.865-12.25c1.057-0.005 1.909-0.866 1.903-1.923s-0.866-1.909-1.923-1.903c-0.299 0.001-0.581 0.072-0.831 0.196l0.011-0.005-5.106-5.107c-0.253-0.245-0.657-0.238-0.902 0.016-0.239 0.247-0.239 0.639 0 0.886l5.103 5.109c-0.392 0.799-0.168 1.764 0.536 2.309l-3.683 11.673c-7.278-2.681-11.004-10.754-8.323-18.032s10.754-11.004 18.032-8.323 11.004 10.754 8.323 18.032c-1.345 3.581-4.003 6.406-7.374 7.938l-0.088 0.036-0.398-1.874c-0.073-0.345-0.411-0.565-0.756-0.492-0.114 0.025-0.213 0.077-0.293 0.149l0.001-0.001-3.837 3.426c-0.263 0.234-0.287 0.637-0.052 0.9 0.075 0.084 0.17 0.147 0.279 0.183l0.005 0.001 4.899 1.564c0.335 0.108 0.694-0.077 0.802-0.412 0.034-0.106 0.040-0.219 0.017-0.328l-0.391-1.839c5.664-2.388 9.342-7.942 9.329-14.089zM15.992 14.664c0.352 0 0.638 0.286 0.638 0.638s-0.286 0.638-0.638 0.638c-0.352 0-0.638-0.285-0.638-0.638s0.285-0.638 0.638-0.638zM18.093 29.528l2.184-1.948 0.603 2.84-2.787-0.892z"></path>
<path d="M15.354 3.185v1.275c0 0.352 0.285 0.638 0.638 0.638s0.638-0.285 0.638-0.638v-1.275c0-0.352-0.286-0.638-0.638-0.638s-0.638 0.286-0.638 0.638zM3.876 14.664c-0.352 0-0.638 0.286-0.638 0.638s0.285 0.638 0.638 0.638h1.275c0.352 0 0.638-0.285 0.638-0.638s-0.285-0.638-0.638-0.638h-1.275zM28.108 15.939c0.352 0 0.638-0.285 0.638-0.638s-0.285-0.638-0.638-0.638h-1.275c-0.352 0-0.638 0.286-0.638 0.638s0.286 0.638 0.638 0.638h1.275z"></path>
</symbol>
<symbol id="icon-astronaut" viewBox="0 0 32 32">
<path d="M31.974 4.524c-0.064-0.191-0.227-0.332-0.427-0.362l-0.003-0-1.91-0.278-0.855-1.731c-0.179-0.365-0.777-0.365-0.956 0l-0.855 1.731-1.91 0.278c-0.203 0.030-0.367 0.171-0.43 0.359l-0.001 0.004c-0.062 0.193-0.011 0.405 0.135 0.547l1.383 1.348-0.326 1.903c-0.005 0.027-0.008 0.058-0.008 0.090 0 0.177 0.086 0.333 0.218 0.431l0.001 0.001c0.166 0.121 0.382 0.135 0.562 0.040l1.709-0.899 1.709 0.899c0.072 0.039 0.158 0.061 0.248 0.061 0 0 0 0 0 0v0c0.11 0 0.221-0.034 0.314-0.102 0.134-0.098 0.22-0.254 0.22-0.431 0-0.032-0.003-0.063-0.008-0.094l0 0.003-0.326-1.903 1.383-1.348c0.099-0.097 0.161-0.232 0.161-0.382 0-0.059-0.009-0.115-0.027-0.168l0.001 0.004zM29.511 5.851c-0.099 0.097-0.161 0.232-0.161 0.382 0 0.032 0.003 0.063 0.008 0.094l-0-0.003 0.191 1.114-1-0.526c-0.078-0.041-0.163-0.061-0.249-0.061s-0.17 0.020-0.249 0.061l-1.001 0.526 0.191-1.114c0.005-0.027 0.008-0.058 0.008-0.090 0-0.15-0.062-0.285-0.161-0.382l-0.81-0.789 1.119-0.163c0.177-0.026 0.324-0.137 0.4-0.289l0.001-0.003 0.5-1.013 0.5 1.013c0.078 0.155 0.224 0.265 0.399 0.291l0.003 0 1.119 0.163-0.809 0.789zM26.133 20.522h-1.067v1.067h1.067v-1.067zM26.133 22.656h-1.067v1.067h1.067v-1.067zM27.2 21.589h-1.067v1.067h1.067v-1.067zM25.067 21.589h-1.067v1.067h1.067v-1.067zM22.4 26.389h-1.067v1.067h1.067v-1.067zM22.4 28.522h-1.067v1.067h1.067v-1.067zM23.467 27.456h-1.067v1.067h1.067v-1.067zM21.333 27.456h-1.067v1.067h1.067v-1.067zM16 24.256h-1.067v1.067h1.067v-1.067zM16 26.389h-1.067v1.067h1.067v-1.067zM17.067 25.322h-1.067v1.067h1.067v-1.067zM14.933 25.322h-1.067v1.067h1.067v-1.067zM5.867 6.122h-1.067v1.067h1.067v-1.067zM5.867 8.255h-1.067v1.067h1.067v-1.067zM6.933 7.189h-1.067v1.067h1.067v-1.067zM4.8 7.189h-1.067v1.067h1.067v-1.067z"></path>
<path d="M24.715 14.159c-0.287-0.388-0.709-0.637-1.188-0.705-0.481-0.068-0.956 0.058-1.34 0.352l-1.252 0.96-1.898 1.417-1.358-0.541c2.421-1.086 4.114-3.508 4.114-6.32 0-3.823-3.123-6.933-6.961-6.933s-6.961 3.11-6.961 6.933c0 1.386 0.414 2.674 1.12 3.758l-2.769-0.024c-0.009 0-0.015 0.004-0.023 0.005-0.053 0.002-0.105 0.013-0.155 0.031-0.013 0.005-0.026 0.008-0.038 0.013-0.006 0.003-0.013 0.003-0.019 0.006l-3.233 1.596c-0.001 0-0.001 0-0.001 0.001l-1.893 0.911c-0.024 0.011-0.045 0.023-0.064 0.036l0.001-0.001c-0.755 0.502-1.012 1.489-0.598 2.295 0.22 0.429 0.595 0.745 1.056 0.889 0.161 0.052 0.347 0.083 0.539 0.083h0c0.29 0 0.577-0.071 0.839-0.211l1.388-0.738 2.264-1.169 1.357-0.008-5.442 5.416c-0.001 0.001-0.001 0.001-0.002 0.001l-1.339 1.333c-0.316 0.315-0.49 0.732-0.49 1.178s0.174 0.863 0.49 1.179c0.325 0.323 0.752 0.485 1.179 0.485s0.854-0.162 1.18-0.485l1.314-1.309 1.741-1.3 0.901 0.897-1.762 1.754c-0 0.001-0.001 0.001-0.002 0.001l-1.339 1.333c-0.316 0.315-0.49 0.732-0.49 1.178s0.174 0.863 0.49 1.179c0.325 0.323 0.753 0.485 1.18 0.485s0.855-0.162 1.18-0.485l3.482-3.467c0.001-0.001 0.001-0.001 0.001-0.002l1.010-1-0.004-0.004c0.006-0.006 0.015-0.009 0.022-0.015l5.166-5.658 3.471 0.494c0.025 0.004 0.050 0.005 0.075 0.005 0.065 0 0.127-0.015 0.187-0.038 0.018-0.006 0.033-0.015 0.050-0.023 0.019-0.010 0.039-0.015 0.058-0.027l3.213-2.133c0.012-0.008 0.018-0.021 0.029-0.029 0.013-0.010 0.029-0.014 0.041-0.026l1.271-1.191c0.662-0.62 0.753-1.635 0.212-2.362zM2.13 17.77c-0.173 0.093-0.37 0.111-0.558 0.052-0.187-0.058-0.338-0.186-0.427-0.358-0.161-0.314-0.068-0.695 0.214-0.902l1.314-0.632 0.449 1.313-0.992 0.527zM5.628 15.942l-1.548 0.8-0.439-1.283 2.027-1.001-0.040 1.484zM20.727 9.322c0 0.918-0.219 1.785-0.599 2.559l-4.181-1.899c-0.044-0.573-0.341-1.075-0.788-1.388l1.464-4.86c2.378 0.756 4.105 2.974 4.105 5.588zM8.938 9.322c0-3.235 2.644-5.867 5.894-5.867 0.253 0 0.5 0.021 0.745 0.052l-1.432 4.754c-0.019-0.001-0.037-0.006-0.057-0.006-1.033 0-1.873 0.837-1.873 1.867s0.84 1.867 1.873 1.867c0.694 0 1.294-0.383 1.618-0.945l3.862 1.755c-1.075 1.446-2.795 2.39-4.737 2.39-3.25 0-5.894-2.632-5.894-5.867zM14.894 10.122c0 0.441-0.362 0.8-0.806 0.8s-0.806-0.359-0.806-0.8 0.362-0.8 0.806-0.8c0.444 0 0.806 0.359 0.806 0.8zM2.465 25.146c-0.236 0.234-0.619 0.234-0.854 0.001-0.114-0.114-0.176-0.263-0.176-0.423s0.062-0.309 0.176-0.421l0.962-0.958 0.851 0.848-0.959 0.955zM5.679 28.88c-0.236 0.234-0.619 0.235-0.855 0.001-0.114-0.114-0.176-0.263-0.176-0.423s0.062-0.309 0.176-0.421l0.963-0.959 0.852 0.848-0.96 0.955zM9.16 25.411c-0.001 0-0.001 0-0.002 0.001l-1.765 1.76-0.852-0.848 1.763-1.756c0.001-0.001 0.001-0.001 0.002-0.001 0.040-0.040 0.065-0.088 0.090-0.135 0.007-0.014 0.020-0.026 0.026-0.040 0.017-0.041 0.019-0.085 0.026-0.129 0.003-0.025 0.014-0.047 0.014-0.073 0-0.036-0.013-0.070-0.020-0.106-0.006-0.032-0.006-0.065-0.019-0.095-0.020-0.050-0.055-0.094-0.091-0.138-0.010-0.012-0.014-0.027-0.025-0.038h-0.001c-0.001-0-0.001-0.002-0.001-0.002l-1.607-1.6c-0.017-0.017-0.039-0.024-0.058-0.038-0.028-0.022-0.055-0.042-0.087-0.058-0.030-0.015-0.061-0.024-0.093-0.033-0.034-0.010-0.067-0.017-0.103-0.020-0.033-0.002-0.063 0.001-0.095 0.005-0.036 0.004-0.069 0.009-0.104 0.020-0.034 0.011-0.063 0.027-0.094 0.045-0.020 0.011-0.042 0.015-0.061 0.029l-1.773 1.324-0.901-0.897 2.399-2.386 4.361 4.289-0.928 0.919zM15.979 18.394c-0.015-0.002-0.030 0.004-0.045 0.003-0.039-0.002-0.076 0.001-0.115 0.007-0.030 0.005-0.059 0.011-0.088 0.021-0.034 0.012-0.065 0.028-0.097 0.047-0.030 0.018-0.057 0.037-0.083 0.061-0.013 0.011-0.028 0.017-0.040 0.029l-4.698 5.146-4.328-4.257 2.833-2.818c0.209-0.208 0.21-0.546 0.002-0.755-0.105-0.105-0.243-0.157-0.381-0.156v-0.001l-2.219 0.013 0.028-1.607 3.104 0.027c1.265 1.294 3.029 2.101 4.981 2.101 0.437 0 0.864-0.045 1.279-0.123 0.040 0.032 0.079 0.065 0.13 0.085l2.41 0.96 0.152 0.758 0.178 0.885-3.003-0.427zM20.020 18.572l-0.313-1.558 1.446-1.080 0.947 1.257-2.080 1.381zM23.774 15.741l-0.838 0.785-0.931-1.236 0.831-0.637c0.155-0.119 0.351-0.168 0.543-0.143 0.193 0.027 0.364 0.128 0.48 0.284 0.217 0.292 0.18 0.699-0.085 0.947z"></path>
<path d="M13.602 18.544l-2.143-2.133c-0.207-0.207-0.545-0.207-0.753 0l-2.142 2.133c-0.1 0.101-0.157 0.236-0.157 0.378 0 0 0 0 0 0.001 0 0.147 0.060 0.281 0.157 0.377l2.142 2.133c0.104 0.103 0.241 0.155 0.377 0.155s0.273-0.052 0.376-0.155l2.143-2.133c0.097-0.097 0.157-0.23 0.157-0.378v-0c0-0.142-0.057-0.278-0.157-0.378zM11.083 20.303l-1.387-1.381 1.387-1.381 1.387 1.381-1.387 1.381zM17.164 5.071l-0.258 1.036c0.071 0.018 1.738 0.452 1.738 2.149h1.067c-0-2.017-1.666-2.965-2.547-3.185zM19.711 9.322h-1.067v1.067h1.067v-1.067z"></path>
</symbol>
<symbol id="icon-antenna" viewBox="0 0 32 32">
<path d="M30.773 22.098l-8.443-8.505 0.937-4.615c0.225 0.090 0.485 0.144 0.758 0.146h0.007c1.192 0.014 2.17-0.941 2.184-2.133s-0.941-2.17-2.133-2.184c-1.192-0.014-2.17 0.941-2.184 2.133-0 0.008-0 0.017-0 0.026 0 0.259 0.046 0.508 0.13 0.739l-0.005-0.015-4.96 0.605-8.091-8.133c-0.096-0.098-0.229-0.159-0.376-0.16h-0c-0.146 0.001-0.278 0.060-0.373 0.155l-1.513 1.504c-0.208 0.208-0.208 0.546 0 0.754l0.814 0.826c-3.153 5.798-2.129 12.978 2.519 17.663 0.041 0.040 0.090 0.072 0.143 0.096l0.003 0.001c-0.032 0.164-0.051 0.353-0.052 0.546v6.188h-6.4c-1.472 0.002-2.665 1.195-2.667 2.667v1.067c0 0.295 0.239 0.533 0.533 0.533h24.533c0.295 0 0.533-0.239 0.533-0.533v-1.067c-0.002-1.472-1.195-2.665-2.667-2.667h-6.4v-2.742c0.915 0.201 1.968 0.317 3.047 0.32h0.002c2.58-0.003 5.005-0.663 7.117-1.822l-0.077 0.039 0.818 0.823c0.096 0.098 0.229 0.159 0.376 0.16h0c0.146-0.001 0.278-0.060 0.373-0.155l1.513-1.504c0.208-0.208 0.208-0.546 0-0.754zM23.28 6.233c0.418-0.415 1.093-0.414 1.509 0.004s0.414 1.093-0.004 1.508c-0.193 0.192-0.459 0.31-0.752 0.31-0 0-0 0-0 0h-0.003c-0.589-0.003-1.064-0.483-1.061-1.072 0.002-0.294 0.122-0.559 0.314-0.751l0-0h-0.002zM22.024 9.738l-0.598 2.946-1.175-1.182 1.774-1.763zM21.419 8.836l-1.92 1.909-1.485-1.493 3.405-0.415zM24.004 28.8c0.884 0 1.6 0.716 1.6 1.6v0.533h-23.467v-0.533c0-0.884 0.716-1.6 1.6-1.6h20.267zM16.537 26.667v1.067h-5.333v-1.067h5.333zM11.204 25.6v-4.053c0-1.294 1.196-2.347 2.667-2.347s2.667 1.053 2.667 2.347v4.053h-5.333zM17.604 23.904v-2.357c0-1.882-1.675-3.413-3.733-3.413-1.331-0.020-2.576 0.657-3.281 1.786-4.058-4.274-4.971-10.645-2.279-15.887l18.602 18.708c-1.823 0.947-3.98 1.502-6.266 1.502-1.079 0-2.128-0.124-3.136-0.357l0.093 0.018zM28.893 23.22l-21.057-21.181 0.755-0.752 7.935 7.98c0.004 0 0.006 0.007 0.010 0.010l13.115 13.191-0.757 0.752z"></path>
<path d="M13.876 20.267h-0.005c-0.884-0.001-1.601 0.714-1.602 1.598s0.714 1.601 1.598 1.602h0.005c0.884 0.001 1.601-0.714 1.602-1.598s-0.714-1.601-1.598-1.602zM14.249 22.245c-0.096 0.096-0.229 0.155-0.376 0.155-0.001 0-0.001 0-0.002 0h0c-0.295-0.002-0.532-0.242-0.531-0.536 0.001-0.147 0.061-0.279 0.157-0.375l0-0c0.096-0.095 0.228-0.154 0.373-0.155h0c0.295 0.002 0.532 0.242 0.531 0.536-0.001 0.147-0.061 0.279-0.157 0.375l-0 0h0.005z"></path>
</symbol>
<symbol id="icon-Vector" viewBox="0 0 40 32">
<path d="M33.843 1.958c0.657-0.578 1.532-0.897 2.44-0.891s1.777 0.338 2.425 0.925c0.648 0.587 1.023 1.383 1.047 2.221s-0.305 1.651-0.919 2.269l-18.62 21.495c-0.32 0.318-0.707 0.574-1.136 0.751s-0.893 0.273-1.364 0.281c-0.47 0.008-0.938-0.072-1.374-0.234s-0.833-0.405-1.166-0.712l-12.348-11.398c-0.344-0.296-0.62-0.652-0.811-1.049s-0.294-0.824-0.302-1.258c-0.008-0.434 0.078-0.865 0.254-1.267s0.438-0.768 0.77-1.075 0.728-0.549 1.164-0.711c0.436-0.162 0.903-0.242 1.373-0.235s0.933 0.103 1.363 0.279c0.429 0.177 0.816 0.431 1.136 0.749l9.772 9.016 16.207-19.062c0.029-0.033 0.060-0.065 0.093-0.095h-0.005z"></path>
</symbol>
<symbol id="icon-user" viewBox="0 0 32 32">
<path d="M16 16c2.947 0 5.333-2.387 5.333-5.333s-2.387-5.333-5.333-5.333c-2.947 0-5.333 2.387-5.333 5.333s2.387 5.333 5.333 5.333zM16 18.667c-3.56 0-10.667 1.787-10.667 5.333v1.333c0 0.733 0.6 1.333 1.333 1.333h18.667c0.733 0 1.333-0.6 1.333-1.333v-1.333c0-3.547-7.107-5.333-10.667-5.333z"></path>
</symbol>
<symbol id="icon-phone" viewBox="0 0 24 32">
<path d="M19.635 18.487l-2.451-0.28c-0.589-0.067-1.167 0.135-1.582 0.55l-1.775 1.775c-2.731-1.389-4.969-3.618-6.359-6.359l1.785-1.785c0.415-0.415 0.618-0.994 0.55-1.582l-0.28-2.432c-0.116-0.975-0.936-1.708-1.92-1.708h-1.669c-1.090 0-1.997 0.907-1.93 1.997 0.511 8.24 7.102 14.821 15.332 15.332 1.090 0.068 1.997-0.839 1.997-1.93v-1.669c0.010-0.975-0.724-1.795-1.698-1.911z"></path>
</symbol>
<symbol id="icon-send" viewBox="0 0 32 32">
<path d="M32 2.667l-32 15 10.227 3.156 15.773-12.323-11.998 13.488 0.010 0.003-0.012-0.003v7.345l5.735-5.576 7.265 2.242 5-23.333z"></path>
</symbol>
<symbol id="icon-email" viewBox="0 0 24 32">
<path d="M20 8h-16c-1.1 0-1.99 0.9-1.99 2l-0.010 12c0 1.1 0.9 2 2 2h16c1.1 0 2-0.9 2-2v-12c0-1.1-0.9-2-2-2zM19.6 12.25l-7.070 4.42c-0.32 0.2-0.74 0.2-1.060 0l-7.070-4.42c-0.25-0.16-0.4-0.43-0.4-0.72 0-0.67 0.73-1.070 1.3-0.72l6.7 4.19 6.7-4.19c0.57-0.35 1.3 0.050 1.3 0.72 0 0.29-0.15 0.56-0.4 0.72z"></path>
</symbol>
<symbol id="icon-close" viewBox="0 0 32 32">
<path d="M32 3.223l-3.223-3.223-12.777 12.777-12.777-12.777-3.223 3.223 12.777 12.777-12.777 12.777 3.223 3.223 12.777-12.777 12.777 12.777 3.223-3.223-12.777-12.777 12.777-12.777z"></path>
</symbol>
<symbol id="icon-Checkbox" viewBox="0 0 32 32">
<path stroke-linejoin="miter" stroke-linecap="butt" stroke-miterlimit="4" stroke-width="2" d="M4 1h24c1.657 0 3 1.343 3 3v24c0 1.657-1.343 3-3 3h-24c-1.657 0-3-1.343-3-3v-24c0-1.657 1.343-3 3-3z"></path>
</symbol>
</defs>
</svg>
